<svg width="84" height="89" viewBox="0 0 84 89" fill="none" xmlns="http://www.w3.org/2000/svg">
<path fill-rule="evenodd" clip-rule="evenodd" d="M36.4091 0.308991C27.3802 1.52282 18.2404 6.34333 12.1761 13.0905C3.63865 22.5893 -0.763035 35.5639 0.108738 48.6607C0.381641 52.7622 0.702281 54.8232 1.681 58.7678C4.21867 68.9947 9.29319 78.5861 15.7773 85.4108C18.8794 88.6761 21.7721 89.2927 23.9 87.1424C24.9609 86.0704 25.2867 84.8879 25.443 81.5412C25.9417 70.8632 29.0276 62.2372 34.9338 55.0126C37.3407 52.0683 39.9673 50.2592 41.7895 50.2911C45.8583 50.3619 52.2647 58.3721 55.5246 67.4648C56.993 71.5604 57.6429 75.1152 58.1334 81.7313C58.2551 83.373 58.4907 85.0448 58.6568 85.4467C59.4903 87.4623 61.0601 88.5099 62.9522 88.3126C64.2804 88.1741 65.1914 87.7093 66.689 86.4062C71.8818 81.8882 77.339 72.6896 80.384 63.3225C82.6741 56.2772 83.4619 50.7799 83.2615 43.2404C83.1642 39.5859 83.061 38.5692 82.517 35.9219C80.899 28.0472 77.7813 21.1254 73.2676 15.3856C67.7085 8.31675 59.5866 3.10433 50.8533 1.0011C46.6745 -0.00528192 40.8309 -0.285189 36.4091 0.308991ZM39.7194 6.99465C38.9341 7.19878 38.7628 7.34702 38.5706 7.98985C38.3461 8.74117 39.1724 9.33928 41.6357 10.2088C44.1133 11.0833 48.6191 13.182 50.6054 14.3867C53.0818 15.8887 56.6175 18.7041 58.7413 20.8655C63.4394 25.6467 66.6407 31.0393 68.7618 37.7446C70.0241 41.7353 70.4027 44.2191 70.6256 49.969C70.8713 56.3027 71.1688 57.8941 72.1807 58.2864C72.925 58.575 73.9693 56.6161 74.8771 53.228C75.3939 51.3006 75.418 50.977 75.425 45.9318C75.4307 41.6537 75.3623 40.2991 75.0634 38.7893C73.4856 30.8198 69.9821 23.9969 64.5671 18.3491C59.0224 12.5657 52.4856 8.67098 46.0578 7.32072C44.2147 6.93358 40.6582 6.75056 39.7194 6.99465Z" fill="black"/>
</svg>
